<svg width="90" height="90" viewBox="0 0 90 90" fill="none" xmlns="http://www.w3.org/2000/svg">
<g filter="url(#filter0_d_168_273)">
<circle cx="45" cy="45" r="25" fill="#C467EF"/>
</g>
<path d="M35 53C35 53.5523 35.4477 54 36 54H37C37.55 54 38 53.55 38 53V44C38 43.45 37.55 43 37 43H36C35.4477 43 35 43.4477 35 44V53ZM54.83 46.88C54.94 46.63 55 46.36 55 46.08V45C55 43.9 54.1 43 53 43H48.7172C48.087 43 47.6139 42.4241 47.7362 41.8059L48.42 38.35C48.47 38.13 48.44 37.89 48.34 37.69C48.11 37.24 47.82 36.83 47.46 36.47C47.2068 36.2112 46.791 36.209 46.535 36.465L40.59 42.41C40.21 42.79 40 43.3 40 43.83V51.67C40 52.95 41.05 54 42.34 54H50.45C51.15 54 51.81 53.63 52.17 53.03L54.83 46.88Z" fill="white"/>
<defs>
<filter id="filter0_d_168_273" x="0" y="0" width="90" height="90" filterUnits="userSpaceOnUse" color-interpolation-filters="sRGB">
<feFlood flood-opacity="0" result="BackgroundImageFix"/>
<feColorMatrix in="SourceAlpha" type="matrix" values="0 0 0 0 0 0 0 0 0 0 0 0 0 0 0 0 0 0 127 0" result="hardAlpha"/>
<feOffset/>
<feGaussianBlur stdDeviation="10"/>
<feComposite in2="hardAlpha" operator="out"/>
<feColorMatrix type="matrix" values="0 0 0 0 0 0 0 0 0 0 0 0 0 0 0 0 0 0 0.15 0"/>
<feBlend mode="normal" in2="BackgroundImageFix" result="effect1_dropShadow_168_273"/>
<feBlend mode="normal" in="SourceGraphic" in2="effect1_dropShadow_168_273" result="shape"/>
</filter>
</defs>
</svg>
